<?xml version="1.0" encoding="UTF-8"?>
<!DOCTYPE svg PUBLIC "-//W3C//DTD SVG 1.1//EN" "http://www.w3.org/Graphics/SVG/1.1/DTD/svg11.dtd">
<svg xmlns="http://www.w3.org/2000/svg" version="1.1" width="286px" height="281px" style="shape-rendering:geometricPrecision; text-rendering:geometricPrecision; image-rendering:optimizeQuality; fill-rule:evenodd; clip-rule:evenodd" xmlns:xlink="http://www.w3.org/1999/xlink">
<g><path style="opacity:0.989" fill="#fdfdfd" d="M 24.5,4.5 C 65.1667,4.5 105.833,4.5 146.5,4.5C 156.405,6.61433 163.405,12.281 167.5,21.5C 166.673,46.6631 178.673,59.9964 203.5,61.5C 213.963,63.9612 220.963,70.2945 224.5,80.5C 224.5,83.5 224.5,86.5 224.5,89.5C 222.089,99.0788 216.089,105.245 206.5,108C 184.836,108.5 163.169,108.667 141.5,108.5C 140.167,108.5 138.833,108.5 137.5,108.5C 129.5,105.167 123.833,99.5 120.5,91.5C 120.5,91.1667 120.5,90.8333 120.5,90.5C 121.73,78.8419 118.063,69.1752 109.5,61.5C 106.133,57.3199 101.8,54.4866 96.5,53C 76.32,49.5091 62.4866,57.3425 55,76.5C 54.5014,80.1516 54.3347,83.8183 54.5,87.5C 54.5,87.8333 54.5,88.1667 54.5,88.5C 51.7892,98.875 45.1225,105.208 34.5,107.5C 21.4745,108.954 12.6412,103.62 8,91.5C 7.50004,68.5024 7.33337,45.5024 7.5,22.5C 7.5,22.1667 7.5,21.8333 7.5,21.5C 10.8333,13.5 16.5,7.83333 24.5,4.5 Z"/></g>
<g><path style="opacity:0.99" fill="#fcfcfc" d="M 256.5,5.5 C 257.5,5.5 258.5,5.5 259.5,5.5C 268.663,7.99608 274.996,13.6628 278.5,22.5C 278.5,63.5 278.5,104.5 278.5,145.5C 275.465,155.868 268.798,162.535 258.5,165.5C 241.957,164.683 230.124,171.683 223,186.5C 221.921,189.063 221.421,191.729 221.5,194.5C 221.807,208.19 215.474,217.19 202.5,221.5C 198.548,222.678 194.548,222.678 190.5,221.5C 181.552,217.593 175.885,210.926 173.5,201.5C 173.169,178.994 173.503,156.66 174.5,134.5C 178.167,127.5 183.5,122.167 190.5,118.5C 219.186,118.317 232.353,103.983 230,75.5C 223.734,59.9521 212.234,52.2855 195.5,52.5C 194.833,52.5 194.167,52.5 193.5,52.5C 183.738,49.0719 177.405,42.4053 174.5,32.5C 174.5,29.5 174.5,26.5 174.5,23.5C 177.159,15.3362 182.492,9.50287 190.5,6C 212.497,5.50004 234.497,5.33337 256.5,5.5 Z"/></g>
<g><path style="opacity:0.032" fill="#161616" d="M 146.5,4.5 C 158.467,4.28783 165.467,9.9545 167.5,21.5C 163.405,12.281 156.405,6.61433 146.5,4.5 Z"/></g>
<g><path style="opacity:0.031" fill="#252525" d="M 256.5,5.5 C 234.497,5.33337 212.497,5.50004 190.5,6C 182.492,9.50287 177.159,15.3362 174.5,23.5C 175.21,13.9477 180.21,7.78107 189.5,5C 212.004,4.17041 234.337,4.33708 256.5,5.5 Z"/></g>
<g><path style="opacity:0.034" fill="#111111" d="M 259.5,5.5 C 266.468,5.06674 271.968,7.7334 276,13.5C 277.908,16.2065 278.741,19.2065 278.5,22.5C 274.996,13.6628 268.663,7.99608 259.5,5.5 Z"/></g>
<g><path style="opacity:0.022" fill="#111111" d="M 24.5,4.5 C 16.5,7.83333 10.8333,13.5 7.5,21.5C 7.66598,15.3382 10.3326,10.5049 15.5,7C 18.2065,5.09237 21.2065,4.25903 24.5,4.5 Z"/></g>
<g><path style="opacity:0.031" fill="#131313" d="M 174.5,32.5 C 177.405,42.4053 183.738,49.0719 193.5,52.5C 181.669,51.0037 175.336,44.3371 174.5,32.5 Z"/></g>
<g><path style="opacity:0.049" fill="#121212" d="M 167.5,21.5 C 169.407,44.0147 181.407,57.348 203.5,61.5C 178.673,59.9964 166.673,46.6631 167.5,21.5 Z"/></g>
<g><path style="opacity:0.053" fill="#141414" d="M 109.5,61.5 C 103.896,59.0352 98.2294,56.5352 92.5,54C 75.419,53.7247 63.5856,61.558 57,77.5C 56.4652,81.0382 55.6319,84.3716 54.5,87.5C 54.3347,83.8183 54.5014,80.1516 55,76.5C 62.4866,57.3425 76.32,49.5091 96.5,53C 101.8,54.4866 106.133,57.3199 109.5,61.5 Z"/></g>
<g><path style="opacity:0.031" fill="#0f0f0f" d="M 81.5,59.5 C 72.2458,63.0896 66.5791,69.7563 64.5,79.5C 64.1667,79.5 63.8333,79.5 63.5,79.5C 64.2821,68.0546 70.2821,61.3879 81.5,59.5 Z"/></g>
<g><path style="opacity:0.99" fill="#fcfcfc" d="M 81.5,59.5 C 84.8333,59.5 88.1667,59.5 91.5,59.5C 101.397,62.396 108.063,68.7293 111.5,78.5C 111.5,99.8333 111.5,121.167 111.5,142.5C 108.824,153.842 101.824,160.842 90.5,163.5C 78.577,162.379 68.7437,166.379 61,175.5C 49.3955,193.164 51.5621,208.998 67.5,223C 75.0072,228.168 83.3405,230.501 92.5,230C 101.682,232.683 107.682,238.517 110.5,247.5C 110.5,250.5 110.5,253.5 110.5,256.5C 107.5,266.833 100.833,273.5 90.5,276.5C 68.8333,276.5 47.1667,276.5 25.5,276.5C 16.5629,273.229 10.2296,267.229 6.5,258.5C 6.5,217.833 6.5,177.167 6.5,136.5C 8.96119,126.037 15.2945,119.037 25.5,115.5C 26.1667,115.5 26.8333,115.5 27.5,115.5C 50.9883,115.012 63.3216,103.012 64.5,79.5C 66.5791,69.7563 72.2458,63.0896 81.5,59.5 Z"/></g>
<g><path style="opacity:0.032" fill="#141414" d="M 91.5,59.5 C 98.9919,59.1631 104.825,62.1631 109,68.5C 110.759,71.6076 111.592,74.941 111.5,78.5C 108.063,68.7293 101.397,62.396 91.5,59.5 Z"/></g>
<g><path style="opacity:0.057" fill="#161616" d="M 109.5,61.5 C 118.063,69.1752 121.73,78.8419 120.5,90.5C 119.34,85.2075 117.84,79.8742 116,74.5C 113.295,70.4235 111.128,66.0901 109.5,61.5 Z"/></g>
<g><path style="opacity:0.027" fill="#101010" d="M 203.5,61.5 C 215.918,61.921 222.918,68.2543 224.5,80.5C 220.963,70.2945 213.963,63.9612 203.5,61.5 Z"/></g>
<g><path style="opacity:0.033" fill="#141414" d="M 54.5,88.5 C 53.5074,100.826 46.8407,107.493 34.5,108.5C 34.5,108.167 34.5,107.833 34.5,107.5C 45.1225,105.208 51.7892,98.875 54.5,88.5 Z"/></g>
<g><path style="opacity:0.055" fill="#111111" d="M 195.5,52.5 C 212.234,52.2855 223.734,59.9521 230,75.5C 232.353,103.983 219.186,118.317 190.5,118.5C 205.761,117.286 217.594,110.286 226,97.5C 231.757,77.5083 224.924,63.3416 205.5,55C 201.962,54.4652 198.628,53.6319 195.5,52.5 Z"/></g>
<g><path style="opacity:0.059" fill="#161616" d="M 63.5,79.5 C 63.8333,79.5 64.1667,79.5 64.5,79.5C 63.3216,103.012 50.9883,115.012 27.5,115.5C 48.4756,112.524 60.4756,100.524 63.5,79.5 Z"/></g>
<g><path style="opacity:0.004" fill="#0d0e0d" d="M 53.5,98.5 C 54.8333,99.1667 54.8333,99.1667 53.5,98.5 Z"/></g>
<g><path style="opacity:0.035" fill="#272727" d="M 224.5,89.5 C 224.119,100.049 218.786,106.549 208.5,109C 185.996,109.83 163.663,109.663 141.5,108.5C 163.169,108.667 184.836,108.5 206.5,108C 216.089,105.245 222.089,99.0788 224.5,89.5 Z"/></g>
<g><path style="opacity:0.037" fill="#303030" d="M 7.5,22.5 C 7.33337,45.5024 7.50004,68.5024 8,91.5C 12.6412,103.62 21.4745,108.954 34.5,107.5C 34.5,107.833 34.5,108.167 34.5,108.5C 24.8502,110.052 16.6835,107.386 10,100.5C 8.72457,98.2827 7.72457,95.9494 7,93.5C 6.1702,69.6631 6.33687,45.9964 7.5,22.5 Z"/></g>
<g><path style="opacity:0.031" fill="#111111" d="M 120.5,91.5 C 123.833,99.5 129.5,105.167 137.5,108.5C 131.338,108.334 126.505,105.667 123,100.5C 121.092,97.7935 120.259,94.7935 120.5,91.5 Z"/></g>
<g><path style="opacity:0.027" fill="#111111" d="M 25.5,115.5 C 15.2945,119.037 8.96119,126.037 6.5,136.5C 6.91074,124.091 13.2441,117.091 25.5,115.5 Z"/></g>
<g><path style="opacity:0.032" fill="#141414" d="M 190.5,118.5 C 183.5,122.167 178.167,127.5 174.5,134.5C 175.483,124.85 180.817,119.517 190.5,118.5 Z"/></g>
<g><path style="opacity:0.025" fill="#121212" d="M 111.5,142.5 C 110.806,155.861 103.806,162.861 90.5,163.5C 101.824,160.842 108.824,153.842 111.5,142.5 Z"/></g>
<g><path style="opacity:0.032" fill="#161616" d="M 278.5,145.5 C 278.412,154.767 274.079,161.267 265.5,165C 263.19,165.497 260.857,165.663 258.5,165.5C 268.798,162.535 275.465,155.868 278.5,145.5 Z"/></g>
<g><path style="opacity:0.989" fill="#fbfbfb" d="M 146.5,172.5 C 155.5,175.5 161.5,181.5 164.5,190.5C 164.5,190.833 164.5,191.167 164.5,191.5C 163.951,213.432 174.451,226.099 196,229.5C 218.76,227.576 230.26,215.243 230.5,192.5C 230.5,192.167 230.5,191.833 230.5,191.5C 233.574,182.093 239.907,176.093 249.5,173.5C 262.841,172.162 272.175,177.495 277.5,189.5C 278.807,212.027 278.807,234.693 277.5,257.5C 274.94,267.061 268.94,273.395 259.5,276.5C 218.5,276.5 177.5,276.5 136.5,276.5C 131.689,274.558 127.189,271.891 123,268.5C 119.967,264.108 117.8,259.441 116.5,254.5C 115.863,231.863 104.197,220.197 81.5,219.5C 80.8333,219.5 80.1667,219.5 79.5,219.5C 70.5629,216.229 64.2296,210.229 60.5,201.5C 60.5,197.833 60.5,194.167 60.5,190.5C 63.3517,182.314 68.685,176.314 76.5,172.5C 99.6869,171.203 123.02,171.203 146.5,172.5 Z"/></g>
<g><path style="opacity:0.037" fill="#141414" d="M 146.5,172.5 C 157.482,173.482 163.482,179.482 164.5,190.5C 161.5,181.5 155.5,175.5 146.5,172.5 Z"/></g>
<g><path style="opacity:0.061" fill="#121212" d="M 258.5,165.5 C 237.695,168.374 225.362,180.04 221.5,200.5C 221.5,198.5 221.5,196.5 221.5,194.5C 221.421,191.729 221.921,189.063 223,186.5C 230.124,171.683 241.957,164.683 258.5,165.5 Z"/></g>
<g><path style="opacity:0.031" fill="#101010" d="M 249.5,172.5 C 249.5,172.833 249.5,173.167 249.5,173.5C 239.907,176.093 233.574,182.093 230.5,191.5C 231.789,180.211 238.122,173.878 249.5,172.5 Z"/></g>
<g><path style="opacity:0.03" fill="#1e1e1e" d="M 249.5,173.5 C 249.5,173.167 249.5,172.833 249.5,172.5C 256.042,171.989 262.376,172.822 268.5,175C 273.932,178.372 276.932,183.205 277.5,189.5C 272.175,177.495 262.841,172.162 249.5,173.5 Z"/></g>
<g><path style="opacity:0.031" fill="#121212" d="M 76.5,172.5 C 68.685,176.314 63.3517,182.314 60.5,190.5C 61.2382,180.428 66.5715,174.428 76.5,172.5 Z"/></g>
<g><path style="opacity:0.054" fill="#151515" d="M 90.5,163.5 C 72.8316,165.76 61.3316,175.427 56,192.5C 56.5946,208.161 64.0946,219.328 78.5,226C 85.8965,227.454 93.2299,229.121 100.5,231C 106.775,234.717 110.108,240.217 110.5,247.5C 107.682,238.517 101.682,232.683 92.5,230C 83.3405,230.501 75.0072,228.168 67.5,223C 51.5621,208.998 49.3955,193.164 61,175.5C 68.7437,166.379 78.577,162.379 90.5,163.5 Z"/></g>
<g><path style="opacity:0.03" fill="#0f0f0f" d="M 60.5,201.5 C 64.2296,210.229 70.5629,216.229 79.5,219.5C 72.3887,219.527 66.8887,216.527 63,210.5C 61.0924,207.794 60.259,204.794 60.5,201.5 Z"/></g>
<g><path style="opacity:0.052" fill="#111111" d="M 164.5,191.5 C 166.129,200.534 169.629,208.868 175,216.5C 190.627,231.383 205.96,231.049 221,215.5C 225.845,208.448 229.012,200.782 230.5,192.5C 230.26,215.243 218.76,227.576 196,229.5C 174.451,226.099 163.951,213.432 164.5,191.5 Z"/></g>
<g><path style="opacity:0.028" fill="#212121" d="M 221.5,194.5 C 221.5,196.5 221.5,198.5 221.5,200.5C 221.328,213.227 214.994,220.227 202.5,221.5C 215.474,217.19 221.807,208.19 221.5,194.5 Z"/></g>
<g><path style="opacity:0.029" fill="#121212" d="M 173.5,201.5 C 175.885,210.926 181.552,217.593 190.5,221.5C 179.251,219.706 173.584,213.04 173.5,201.5 Z"/></g>
<g><path style="opacity:0.054" fill="#101010" d="M 81.5,219.5 C 104.197,220.197 115.863,231.863 116.5,254.5C 113.176,234.509 101.509,222.842 81.5,219.5 Z"/></g>
<g><path style="opacity:0.031" fill="#141414" d="M 6.5,258.5 C 10.2296,267.229 16.5629,273.229 25.5,276.5C 18.38,276.522 12.88,273.522 9,267.5C 7.09237,264.794 6.25903,261.794 6.5,258.5 Z"/></g>
<g><path style="opacity:0.032" fill="#141414" d="M 116.5,254.5 C 117.8,259.441 119.967,264.108 123,268.5C 127.189,271.891 131.689,274.558 136.5,276.5C 123.21,275.209 116.543,267.876 116.5,254.5 Z"/></g>
<g><path style="opacity:0.025" fill="#171717" d="M 110.5,256.5 C 110.826,264.014 107.826,269.847 101.5,274C 98.0769,275.904 94.4102,276.737 90.5,276.5C 100.833,273.5 107.5,266.833 110.5,256.5 Z"/></g>
<g><path style="opacity:0.034" fill="#131313" d="M 277.5,257.5 C 277.933,264.468 275.267,269.968 269.5,274C 266.464,276.006 263.131,276.84 259.5,276.5C 268.94,273.395 274.94,267.061 277.5,257.5 Z"/></g>
</svg>
